<?xml version="1.0" encoding="UTF-8"?>
<svg width="252px" height="106px" viewBox="0 0 252 106" version="1.1" xmlns="http://www.w3.org/2000/svg" xmlns:xlink="http://www.w3.org/1999/xlink">
    <!-- Generator: Sketch 46.2 (44496) - http://www.bohemiancoding.com/sketch -->
    <title>cirlces horizontal</title>
    <desc>Created with Sketch.</desc>
    <defs>
        <linearGradient x1="0%" y1="50%" x2="100%" y2="50%" id="linearGradient-1">
            <stop stop-color="#F2547D" offset="0%"></stop>
            <stop stop-color="#D94C53" offset="100%"></stop>
        </linearGradient>
        <polygon id="path-2" points="48.5021622 0.820968182 48.5021622 48.3573318 0.946264865 48.3573318 0.946264865 0.820968182 48.5021622 0.820968182"></polygon>
    </defs>
    <g id="Homepage" stroke="none" stroke-width="1" fill="none" fill-rule="evenodd">
        <g id="Homepage---Desktop" transform="translate(-777.000000, -5681.000000)">
            <g id="cirlces-horizontal" transform="translate(777.000000, 5681.000000)">
                <g id="cirlces" transform="translate(126.000000, 53.500000) rotate(-270.000000) translate(-126.000000, -53.500000) translate(72.500000, -72.500000)">
                    <g id="Page-1-Copy" transform="translate(-0.000000, 0.000000)">
                        <path d="M0.000572972973,211.864705 C0.000572972973,233.762932 17.7598703,251.514614 39.6674919,251.514614 C61.5751135,251.514614 79.3344108,233.762932 79.3344108,211.864705 C79.3344108,189.966477 61.5751135,172.214795 39.6674919,172.214795 C17.7598703,172.214795 0.000572972973,189.966477 0.000572972973,211.864705 M31.4023568,211.864705 C31.4023568,207.311523 35.1123568,203.603114 39.6674919,203.603114 C44.2254919,203.603114 47.9297622,207.311523 47.9297622,211.864705 C47.9297622,216.42075 44.2254919,220.126295 39.6674919,220.126295 C35.1123568,220.126295 31.4023568,216.42075 31.4023568,211.864705" id="Fill-1" fill="url(#linearGradient-1)"></path>
                        <g id="Group-5" transform="translate(57.297297, 93.151836)">
                            <mask id="mask-3" fill="white">
                                <use xlink:href="#path-2"></use>
                            </mask>
                            <g id="Clip-4"></g>
                            <path d="M0.946264865,24.58915 C0.946264865,37.7160591 11.5921027,48.3573318 24.7246432,48.3573318 C37.8571838,48.3573318 48.5030216,37.7160591 48.5030216,24.58915 C48.5030216,11.4622409 37.8571838,0.820968182 24.7246432,0.820968182 C11.5921027,0.820968182 0.946264865,11.4622409 0.946264865,24.58915 M4.90837297,24.58915 C4.90837297,13.6672409 13.7980486,4.78137727 24.7246432,4.78137727 C35.648373,4.78137727 44.5409135,13.6672409 44.5409135,24.58915 C44.5409135,35.5110591 35.648373,44.3969227 24.7246432,44.3969227 C13.7980486,44.3969227 4.90837297,35.5110591 4.90837297,24.58915" id="Fill-3" fill="url(#linearGradient-1)" mask="url(#mask-3)"></path>
                        </g>
                        <path d="M65.9764054,117.740986 C65.9764054,126.764305 73.2961351,134.080895 82.3233243,134.080895 C91.3505135,134.080895 98.6702432,126.764305 98.6702432,117.740986 C98.6702432,108.717668 91.3505135,101.401077 82.3233243,101.401077 C73.2961351,101.401077 65.9764054,108.717668 65.9764054,117.740986 M69.9385135,117.740986 C69.9385135,110.914077 75.4934865,105.361486 82.3233243,105.361486 C89.1531622,105.361486 94.7052703,110.914077 94.7052703,117.740986 C94.7052703,124.567895 89.1531622,130.120486 82.3233243,130.120486 C75.4934865,130.120486 69.9385135,124.567895 69.9385135,117.740986" id="Fill-6" fill="url(#linearGradient-1)"></path>
                        <path d="M42.1017676,64.8963 C42.1017676,73.6218 35.0226865,80.6978455 26.2934432,80.6978455 C17.5613351,80.6978455 10.4851189,73.6218 10.4851189,64.8963 C10.4851189,56.1708 17.5613351,49.0976182 26.2934432,49.0976182 C35.0226865,49.0976182 42.1017676,56.1708 42.1017676,64.8963 Z" id="Fill-8" fill="url(#linearGradient-1)"></path>
                        <path d="M69.8832216,7.91852727 C69.8832216,12.2913 66.3336541,15.8393455 61.9590054,15.8393455 C57.5843568,15.8393455 54.0347892,12.2913 54.0347892,7.91852727 C54.0347892,3.54575455 57.5843568,0.000572727273 61.9590054,0.000572727273 C66.3336541,0.000572727273 69.8832216,3.54575455 69.8832216,7.91852727 Z" id="Fill-10" fill="url(#linearGradient-1)"></path>
                    </g>
                </g>
            </g>
        </g>
    </g>
</svg>