<?xml version="1.0" encoding="utf-8"?>
<!-- Generator: Adobe Illustrator 20.1.0, SVG Export Plug-In . SVG Version: 6.00 Build 0)  -->
<svg version="1.1" id="Layer_1" xmlns="http://www.w3.org/2000/svg" xmlns:xlink="http://www.w3.org/1999/xlink" x="0px" y="0px"
	 width="119px" height="33px" viewBox="0 0 119 33" enable-background="new 0 0 119 33" xml:space="preserve">
<g id="XMLID_1_">
	<rect id="XMLID_15_" y="16" fill="#FFFFFF" width="4" height="13.9"/>
	<path fill="#FFFFFF" d="M94.9,11.3h-4v5.5c-1.2-0.9-3.3-1.2-4.2-1.2c-3.9,0-6.3,3.1-6.3,7.2c0,4.1,3.4,7.2,7.3,7.2
		c6.2,0,7.3-4.4,7.3-6.5C94.9,19.2,94.9,11.3,94.9,11.3z M87.7,26.4c-2.1,0-3.1-1.4-3.1-3.5s1-3.8,3.1-3.8c1.5,0,2.5,0.6,3.2,1.1
		c0,1.3,0,2.5,0,2.7C90.9,25,89.9,26.4,87.7,26.4z"/>
	<circle id="XMLID_12_" fill="#FFFFFF" cx="2" cy="12.1" r="2"/>
	<path id="XMLID_11_" fill="#FFFFFF" d="M13.1,15.7c0,0-0.1,0-0.1,0c0,0-0.1,0-0.1,0c-1,0-6.4,0.4-6.4,7.1c0,2.3,0,7.1,0,7.1h4v-7.6
		c0-1.7,1.1-2.7,2.5-2.7c1.4,0.1,2.5,1,2.5,2.7v7.6h4c0,0,0-4.8,0-7.1C19.5,16.1,14,15.7,13.1,15.7z"/>
	<path id="XMLID_10_" fill="#FFFFFF" d="M60.1,23.6c0,1.7-1.1,2.7-2.5,2.7c-1.4-0.1-2.5-1-2.5-2.7V16h-4c0,0,0,4.8,0,7.1
		c0,6.7,5.4,7.1,6.4,7.1c0,0,0.1,0,0.1,0s0.1,0,0.1,0c1,0,6.4-0.4,6.4-7.1c0-2.3,0-7.1,0-7.1h-4L60.1,23.6L60.1,23.6z"/>
	<path id="XMLID_9_" fill="#FFFFFF" d="M72.5,15.7c0,0-0.1,0-0.1,0s-0.1,0-0.1,0c-1,0-6.4,0.4-6.4,7.1c0,2.3,0,7.1,0,7.1h4v-7.6
		c0-1.7,1.1-2.7,2.5-2.7c1.4,0.1,2.5,1,2.5,2.7v7.6h4c0,0,0-4.8,0-7.1C78.9,16.1,73.5,15.7,72.5,15.7z"/>
	<path id="XMLID_8_" fill="#FFFFFF" d="M49.4,21.6c0-0.1-0.1-0.3-0.1-0.4c0-0.1-0.1-0.2-0.1-0.3c0-0.1-0.1-0.1-0.1-0.2
		c-0.1-0.1-0.1-0.3-0.2-0.4c-0.1-0.1-0.1-0.2-0.1-0.3c0,0,0,0,0-0.1c0-0.1-0.1-0.1-0.1-0.1c-0.3-0.6-0.7-1.1-1.1-1.5l0,0
		c0,0-0.1-0.1-0.1-0.1c-0.3-0.3-0.7-0.6-1-0.8l0,0c-0.7-0.5-1.5-0.8-2.4-0.9c-0.5-0.1-0.9-0.1-1.5-0.1c-0.3,0-0.6,0-0.8,0
		c0,0-0.1,0-0.1,0c-0.2,0-0.4,0.1-0.6,0.1c-0.1,0-0.1,0-0.2,0.1c-1.5,0.3-2.8,1.1-4,2.3c-0.2,0.2-0.4,0.4-0.5,0.6
		c-0.3,0.3-0.5,0.6-0.8,0.9l-2.2,2.9c-0.2,0.3-0.5,0.6-0.7,0.9c-0.1,0.1-0.2,0.2-0.3,0.3c-0.1,0.1-0.2,0.2-0.3,0.3
		c-1.1,1.1-2.4,1.7-3.4,1.7c-0.7,0-1.3-0.2-1.9-0.6c-0.2-0.1-0.3-0.3-0.4-0.3c-0.1-0.1-0.1-0.1-0.2-0.2c-0.6-0.9-0.1-1.9,0.4-2.1
		c-0.5-0.1-1.1-1.3-0.2-2.3c0,0,0.1-0.1,0.1-0.2c0.6-0.5,1.3-0.8,2.1-0.8c1.1,0,2.8,1,4,2.3c0,0,0.1-0.1,0.2-0.2l0,0l2-2.5
		c0,0,0-0.1,0.1-0.1c0,0,0,0,0,0l0,0c0.1-0.1,0.1-0.1,0.1-0.2c-1.6-1.7-3.7-2.7-5.7-2.9c-0.3,0-0.6-0.1-0.8-0.1
		c-1.1,0-2.1,0.2-3,0.6l0,0v-0.2l0,0V8.9h-4V23l0,0c0,0,0,0,0,0c0,0.1,0,0.1,0,0.2c0,0.5,0.1,1.1,0.1,1.6c0,0.1,0.1,0.3,0.1,0.4
		c0,0.1,0.1,0.2,0.1,0.3c0,0.1,0,0.1,0.1,0.2c0.1,0.1,0.1,0.3,0.2,0.4c0,0.1,0.1,0.2,0.1,0.3c0,0,0,0,0,0.1c0,0.1,0.1,0.1,0.1,0.1
		c0.3,0.6,0.7,1.1,1.1,1.5l0,0c0,0,0.1,0.1,0.1,0.1c0.3,0.3,0.7,0.6,1,0.8l0,0c0.7,0.5,1.5,0.8,2.4,0.9c0.5,0.1,0.9,0.1,1.5,0.1
		c0.3,0,0.6,0,0.8,0c0,0,0.1,0,0.1,0c0.2,0,0.4-0.1,0.6-0.1c0.1,0,0.1,0,0.2,0c1.5-0.3,2.8-1.1,4-2.3c0.2-0.2,0.4-0.4,0.5-0.6
		c0.3-0.3,0.5-0.6,0.8-0.9l2.2-2.9c0.2-0.3,0.5-0.6,0.7-0.9c0.1-0.1,0.2-0.2,0.3-0.3c0.1-0.1,0.2-0.2,0.3-0.3
		c1.1-1.1,2.4-1.7,3.4-1.7c0.7,0,1.3,0.2,1.9,0.6c0.2,0.1,0.3,0.3,0.4,0.3c0.1,0.1,0.1,0.1,0.2,0.2c0.6,0.9,0.1,1.9-0.4,2.1
		c0.5,0.1,1.1,1.3,0.2,2.3c0,0-0.1,0.1-0.1,0.2c-0.6,0.5-1.3,0.8-2.1,0.8c-1.1,0-2.8-1-4-2.3c0,0-0.1,0.1-0.2,0.2l0,0l-2,2.5
		c0,0,0,0.1-0.1,0.1c0,0,0,0,0,0l0,0c-0.1,0.1-0.1,0.1-0.1,0.2c1.6,1.7,3.7,2.7,5.7,2.9c0.3,0,0.6,0.1,0.8,0.1c1.1,0,2.1-0.2,3-0.6
		c0.1-0.1,0.2-0.1,0.3-0.2c0,0,0.1,0,0.1-0.1c0.1-0.1,0.2-0.1,0.3-0.1c0.5-0.3,0.9-0.6,1.3-1l0,0c0.6-0.6,1.1-1.4,1.4-2.2
		c0-0.1,0-0.1,0.1-0.2c0-0.1,0.1-0.2,0.1-0.3c0-0.1,0.1-0.2,0.1-0.3c0-0.1,0-0.1,0-0.1c0.1-0.6,0.2-1.2,0.2-1.8l0,0v0l0,0
		c0,0,0,0,0,0v0v0C49.5,22.6,49.5,22.1,49.4,21.6z"/>
	<path fill="#FFFFFF" d="M102.4,21.8c0.5,0.2,0.9,0.5,1.3,0.9c0.4,0.4,0.7,0.8,0.9,1.3c0.2,0.5,0.3,1.1,0.3,1.7
		c0,0.6-0.1,1.1-0.3,1.7s-0.5,0.9-0.9,1.3c-0.4,0.4-0.8,0.7-1.3,0.9c-0.5,0.2-1.1,0.3-1.6,0.3s-1.1-0.1-1.6-0.3
		c-0.5-0.2-0.9-0.5-1.3-0.9c-0.4-0.4-0.7-0.8-0.9-1.3c-0.2-0.5-0.3-1.1-0.3-1.7s0.1-1.1,0.3-1.7c0.2-0.5,0.5-0.9,0.9-1.3
		c0.4-0.4,0.8-0.7,1.3-0.9c0.5-0.2,1-0.3,1.6-0.3S101.8,21.6,102.4,21.8z M101.5,27.9c0.2-0.1,0.5-0.3,0.7-0.5
		c0.2-0.2,0.3-0.4,0.4-0.7c0.1-0.3,0.2-0.6,0.2-0.9s-0.1-0.7-0.2-0.9c-0.1-0.3-0.3-0.5-0.4-0.7c-0.2-0.2-0.4-0.4-0.7-0.5
		c-0.3-0.1-0.5-0.2-0.8-0.2c-0.3,0-0.5,0.1-0.8,0.2c-0.3,0.1-0.5,0.3-0.7,0.5c-0.2,0.2-0.3,0.5-0.4,0.7c-0.1,0.3-0.2,0.6-0.2,0.9
		c0,0.3,0.1,0.6,0.2,0.9c0.1,0.3,0.3,0.5,0.4,0.7c0.2,0.2,0.4,0.3,0.7,0.5c0.3,0.1,0.5,0.2,0.8,0.2C101,28,101.3,28,101.5,27.9z"/>
	<path fill="#FFFFFF" d="M110.4,23.5c-0.7-0.1-1.3,0-1.7,0.3c-0.4,0.3-0.7,0.7-0.7,1.3v4.6h-2.2v-4.6c0-0.6,0.1-1.1,0.3-1.5
		c0.2-0.5,0.5-0.9,0.9-1.2c0.4-0.3,0.9-0.5,1.4-0.7c0.6-0.1,1.2-0.2,1.9-0.1L110.4,23.5L110.4,23.5z"/>
	<path fill="#FFFFFF" d="M119,28.9c0,0.6-0.1,1.2-0.3,1.7c-0.2,0.5-0.5,0.9-0.8,1.3s-0.8,0.6-1.3,0.8c-0.5,0.2-1.1,0.3-1.7,0.3
		c-0.5,0-0.9-0.1-1.4-0.2c-0.4-0.1-0.8-0.3-1.1-0.5c-0.3-0.2-0.6-0.5-0.9-0.8c-0.2-0.3-0.4-0.7-0.5-1.1h2.2c0.1,0.1,0.1,0.3,0.3,0.4
		c0.1,0.1,0.3,0.2,0.4,0.3c0.1,0.1,0.3,0.1,0.5,0.1c0.2,0,0.3,0,0.5,0c0.7,0,1.2-0.2,1.6-0.6c0.3-0.4,0.5-0.9,0.5-1.6v-0.3
		c-0.3,0.3-0.6,0.5-1,0.6c-0.4,0.1-0.8,0.2-1.3,0.2c-0.5,0-1-0.1-1.5-0.3c-0.5-0.2-0.9-0.5-1.2-0.8c-0.3-0.3-0.6-0.8-0.8-1.2
		s-0.3-1-0.3-1.5c0-0.5,0.1-1.1,0.3-1.5c0.2-0.5,0.5-0.9,0.8-1.3c0.4-0.4,0.8-0.6,1.3-0.9c0.5-0.2,1.1-0.3,1.7-0.3s1.1,0.1,1.6,0.3
		c0.5,0.2,0.9,0.5,1.3,0.9c0.4,0.4,0.6,0.8,0.8,1.3c0.2,0.5,0.3,1,0.3,1.5L119,28.9L119,28.9z M116.8,24.7c-0.1-0.3-0.3-0.5-0.4-0.7
		c-0.2-0.2-0.4-0.3-0.7-0.5c-0.2-0.1-0.5-0.2-0.8-0.2s-0.5,0.1-0.8,0.2c-0.3,0.1-0.5,0.3-0.7,0.5c-0.2,0.2-0.3,0.4-0.4,0.7
		c-0.1,0.3-0.2,0.5-0.2,0.9s0.1,0.6,0.2,0.8c0.1,0.3,0.3,0.5,0.4,0.7c0.2,0.2,0.4,0.3,0.7,0.5c0.3,0.1,0.5,0.2,0.8,0.2
		s0.5-0.1,0.8-0.2c0.3-0.1,0.5-0.3,0.7-0.5c0.2-0.2,0.3-0.4,0.4-0.7c0.1-0.3,0.2-0.5,0.2-0.8C117,25.2,116.9,25,116.8,24.7z"/>
	<path id="XMLID_2_" fill="#FFFFFF" d="M96.5,29c0-0.5-0.4-0.9-0.9-0.9s-0.9,0.4-0.9,0.9c0,0.5,0.4,0.9,0.9,0.9
		C96.1,29.9,96.5,29.5,96.5,29z"/>
</g>
</svg>
